<?xml version="1.0" standalone="no"?>
<!DOCTYPE svg PUBLIC "-//W3C//DTD SVG 20010904//EN"
 "http://www.w3.org/TR/2001/REC-SVG-20010904/DTD/svg10.dtd">
<svg version="1.0" xmlns="http://www.w3.org/2000/svg"
 width="418.000000pt" height="418.000000pt" viewBox="0 0 418.000000 418.000000"
 preserveAspectRatio="xMidYMid meet">
<metadata>
Created by potrace 1.11, written by Peter Selinger 2001-2013
</metadata>
<g transform="translate(0.000000,418.000000) scale(0.100000,-0.100000)"
fill="#000000" stroke="none">
<path d="M1890 3308 c-52 -9 -149 -26 -215 -38 -171 -30 -256 -60 -377 -134
-47 -28 -116 -32 -183 -11 -144 46 -228 54 -345 31 -237 -46 -410 -172 -451
-328 -15 -55 -3 -78 41 -78 30 0 45 15 75 73 56 112 198 212 329 232 17 3 44
9 60 13 47 13 151 -3 211 -32 30 -15 55 -32 55 -38 0 -6 -42 -66 -93 -134
-143 -189 -183 -284 -180 -431 1 -87 27 -164 72 -210 120 -125 357 -107 497
37 44 45 94 118 98 143 1 7 8 30 16 52 14 40 18 165 8 220 -16 82 -60 167
-153 294 -14 19 -25 40 -25 47 0 44 236 145 395 169 54 8 182 8 195 0 17 -11
11 -57 -30 -226 -21 -90 -41 -175 -44 -189 -2 -14 -10 -47 -16 -75 -6 -27 -14
-61 -16 -75 -5 -27 -6 -29 -28 -145 -9 -44 -18 -98 -21 -120 -4 -22 -8 -47
-10 -55 -2 -8 -7 -35 -10 -60 -3 -25 -8 -56 -10 -70 -8 -48 -15 -96 -26 -165
-6 -38 -15 -90 -20 -115 -4 -25 -11 -63 -14 -85 -3 -22 -8 -51 -10 -65 -22
-123 -56 -326 -61 -357 -17 -118 -72 -275 -131 -375 -51 -88 -140 -173 -215
-208 -54 -24 -74 -28 -139 -27 -65 2 -86 8 -150 39 -205 102 -319 334 -273
555 28 131 94 216 259 333 125 89 130 95 126 136 -4 37 -100 3 -217 -77 -77
-52 -206 -188 -241 -254 -71 -135 -85 -290 -37 -433 66 -196 227 -343 428
-389 17 -4 81 -8 141 -8 90 0 121 5 168 23 217 83 340 204 481 473 97 186 150
351 196 612 11 60 21 116 24 125 3 9 7 34 10 55 15 98 47 127 124 111 20 -4
42 -8 49 -10 68 -13 180 -71 243 -126 94 -80 170 -249 275 -608 34 -114 59
-182 103 -280 31 -71 123 -199 181 -253 67 -62 161 -111 242 -125 135 -25 319
21 319 79 0 28 -23 34 -83 21 -95 -21 -117 -22 -162 -11 -111 28 -176 166
-240 509 -107 575 -220 759 -544 884 -74 29 -74 29 -52 47 12 10 47 23 79 29
88 18 310 94 382 130 308 155 480 387 481 648 1 138 -93 260 -225 293 -125 31
-290 -20 -375 -117 -61 -69 -77 -123 -62 -212 2 -8 67 -29 78 -25 7 3 44 45
82 93 74 93 116 130 149 130 54 0 75 -86 48 -190 -41 -160 -206 -347 -435
-498 -141 -92 -460 -232 -530 -232 -49 0 -64 29 -56 105 3 36 8 76 11 88 2 12
7 38 10 57 16 97 58 288 85 390 41 153 41 152 42 250 0 53 -4 94 -13 110 -43
81 -135 97 -350 58z m-657 -447 c62 -68 90 -144 89 -242 -1 -143 -96 -309
-203 -353 -35 -15 -39 -14 -70 7 -47 32 -91 116 -94 183 -4 78 30 182 93 283
34 54 128 161 142 161 4 0 24 -18 43 -39z"/>
</g>
</svg>
